<mxfile host="Electron" modified="2024-02-06T09:13:22.048Z" agent="Mozilla/5.0 (Macintosh; Intel Mac OS X 10_15_7) AppleWebKit/537.36 (KHTML, like Gecko) draw.io/22.1.15 Chrome/120.0.6099.109 Electron/28.1.0 Safari/537.36" etag="_xoAl0Sv_bw7fjvGMi8J" version="22.1.15" type="device">
  <diagram name="第 1 页" id="au-L3_Ta2gkG0wOd2s2Q">
    <mxGraphModel dx="1114" dy="765" grid="1" gridSize="10" guides="1" tooltips="1" connect="1" arrows="1" fold="1" page="1" pageScale="1" pageWidth="827" pageHeight="1169" math="0" shadow="0">
      <root>
        <mxCell id="0" />
        <mxCell id="1" parent="0" />
        <mxCell id="vkQXLphcsqaill5UG_bD-1" value=":Object" style="shape=umlLifeline;perimeter=lifelinePerimeter;whiteSpace=wrap;html=1;container=1;dropTarget=0;collapsible=0;recursiveResize=0;outlineConnect=0;portConstraint=eastwest;newEdgeStyle={&quot;curved&quot;:0,&quot;rounded&quot;:0};sketch=1;curveFitting=1;jiggle=2;" vertex="1" parent="1">
          <mxGeometry x="360" y="240" width="100" height="300" as="geometry" />
        </mxCell>
      </root>
    </mxGraphModel>
  </diagram>
</mxfile>
